<?xml version="1.0" standalone="no"?>
<!DOCTYPE svg PUBLIC "-//W3C//DTD SVG 20010904//EN"
 "http://www.w3.org/TR/2001/REC-SVG-20010904/DTD/svg10.dtd">
<svg version="1.0" xmlns="http://www.w3.org/2000/svg"
 width="600.000000pt" height="600.000000pt" viewBox="0 0 600.000000 600.000000"
 preserveAspectRatio="xMidYMid meet">

<g transform="translate(0.000000,600.000000) scale(0.100000,-0.100000)"
fill="#000000" stroke="none">
<path d="M246 3360 c-63 -25 -119 -79 -147 -144 -18 -40 -23 -70 -24 -141 0
-159 62 -300 159 -360 41 -25 62 -30 124 -34 89 -4 143 10 194 50 48 38 68 38
68 -1 0 -36 23 -50 85 -50 83 0 85 3 85 148 0 127 12 187 25 126 23 -103 52
-171 91 -210 51 -52 97 -67 185 -62 57 3 76 9 114 36 l46 32 40 -32 41 -33
262 -1 c203 -1 269 2 297 13 31 12 40 12 72 -2 75 -31 179 -15 254 41 21 15
22 15 29 -10 3 -15 14 -31 24 -36 24 -13 91 -13 124 0 l26 10 0 132 c0 73 4
139 9 147 7 11 16 11 38 3 39 -13 47 -7 72 56 25 64 26 88 5 100 -11 6 -15 17
-11 31 4 16 -3 27 -26 43 -29 21 -43 23 -157 23 l-125 0 -5 -43 -5 -44 -29 31
c-43 45 -102 64 -180 59 -47 -3 -74 -10 -95 -26 -37 -27 -39 -27 -43 0 -2 14
-12 24 -28 28 -19 4 -26 13 -28 38 -2 19 -11 36 -23 42 -18 10 -19 7 -19 -55
l0 -65 30 0 c28 0 30 -2 30 -40 0 -38 -2 -40 -30 -40 l-30 0 0 -120 0 -120 29
0 c21 0 30 -6 35 -22 14 -53 10 -58 -49 -58 -46 0 -60 4 -80 25 -24 23 -25 29
-25 160 l0 135 -26 0 c-23 0 -25 3 -22 38 2 30 7 38 26 40 19 3 22 9 22 45 0
39 4 44 40 65 39 22 45 42 14 42 -8 0 -33 -10 -54 -22 -34 -19 -40 -28 -40
-55 0 -27 -4 -33 -21 -33 -12 0 -23 -8 -26 -20 -5 -19 -5 -19 -44 0 -56 29
-170 28 -229 -2 -25 -13 -54 -37 -66 -54 l-21 -32 -28 35 c-15 19 -46 44 -69
54 -56 26 -150 25 -199 -1 -37 -20 -37 -20 -69 0 -28 17 -51 20 -149 20 l-115
0 -31 43 c-63 90 -207 124 -327 77z m225 -41 c20 -10 48 -31 61 -47 26 -31 54
-90 46 -97 -2 -3 -26 -8 -51 -11 -40 -6 -47 -4 -47 11 0 9 -15 32 -34 51 -30
30 -41 34 -84 34 -100 0 -152 -65 -152 -188 0 -81 15 -125 53 -160 71 -66 197
-31 224 61 9 34 26 37 79 16 23 -8 23 -9 8 -51 -56 -158 -281 -199 -393 -71
-47 53 -71 121 -71 203 0 111 39 191 115 235 78 46 172 51 246 14z m244 -129
c4 -7 12 -7 25 0 27 14 83 12 104 -3 16 -12 17 -18 7 -50 -12 -36 -13 -36 -56
-30 -38 5 -44 3 -56 -18 -7 -15 -14 -77 -17 -157 l-5 -133 -41 3 -41 3 -3 185
c-1 101 0 190 2 197 6 15 72 18 81 3z m403 -4 c63 -33 102 -101 102 -177 l0
-39 -135 0 c-130 0 -135 -1 -135 -21 0 -34 53 -79 94 -79 28 0 41 7 63 35 24
30 34 35 71 35 48 0 50 -6 22 -59 -62 -122 -260 -116 -325 10 -52 98 -12 248
77 292 41 20 130 22 166 3z m417 0 c51 -22 59 -45 65 -206 3 -80 10 -153 14
-162 7 -16 2 -18 -37 -18 -32 0 -49 5 -55 16 -8 15 -12 15 -39 0 -76 -39 -162
-29 -208 25 -46 55 -25 142 40 173 17 9 65 20 106 27 84 12 91 16 83 45 -6 24
-42 44 -78 44 -28 0 -76 -35 -76 -56 0 -16 -56 -19 -79 -5 -29 19 23 97 79
120 37 15 146 13 185 -3z m603 -15 c47 -33 74 -93 75 -166 1 -79 -17 -127 -58
-164 -122 -107 -295 -34 -312 131 -10 96 31 183 102 214 47 22 153 14 193 -15z
m205 17 c4 -10 7 -10 18 0 7 6 31 12 54 12 61 0 78 -16 63 -62 -11 -37 -12
-37 -52 -32 -65 9 -70 -4 -74 -168 l-4 -138 -44 0 -44 0 0 193 c0 107 3 197 7
200 11 12 71 7 76 -5z m-1886 -86 c15 -23 19 -39 14 -50 -5 -9 -14 -36 -20
-60 -14 -49 -45 -74 -95 -74 -51 0 -76 17 -77 55 -3 84 13 135 48 156 10 6 38
10 63 8 38 -2 48 -7 67 -35z m138 -62 c3 -5 -3 -10 -14 -10 -11 0 -23 5 -26
10 -3 6 3 10 14 10 11 0 23 -4 26 -10z"/>
<path d="M1004 3120 c-21 -8 -54 -46 -54 -62 0 -5 38 -8 85 -8 47 0 85 4 85 9
0 23 -15 43 -41 56 -31 17 -44 18 -75 5z"/>
<path d="M1431 2965 c-81 -15 -109 -45 -75 -79 24 -24 88 -20 118 7 24 21 46
88 29 86 -4 -1 -37 -7 -72 -14z"/>
<path d="M1993 3120 c-70 -28 -80 -179 -16 -229 34 -28 76 -26 109 2 23 20 28
34 32 86 5 73 -10 116 -49 136 -32 17 -44 18 -76 5z m85 -146 c3 -35 -18 -64
-48 -64 -24 0 -33 15 -26 45 15 59 69 72 74 19z"/>
<path d="M2670 3070 c0 -200 4 -310 10 -310 6 0 10 -11 10 -24 0 -53 13 -56
245 -56 193 0 215 2 236 19 22 18 24 18 63 0 81 -37 187 -24 268 34 14 9 22 9
35 -1 100 -72 247 -70 325 5 l27 26 33 -28 c47 -40 90 -55 156 -56 58 -1 122
18 154 47 18 17 38 11 38 -11 0 -21 33 -35 85 -35 84 0 85 2 85 151 0 123 8
169 30 169 6 0 10 -49 10 -119 0 -96 3 -120 15 -125 8 -3 15 -17 15 -30 0 -32
26 -46 85 -46 52 0 85 14 85 35 0 21 14 19 56 -10 34 -23 46 -25 148 -25 80 0
119 4 140 15 26 14 34 14 65 2 27 -11 93 -15 254 -15 204 -2 219 0 237 18 25
25 27 25 75 0 52 -26 154 -27 210 -1 87 39 120 115 91 207 -13 43 -14 57 -5
72 10 16 8 33 -10 88 -31 95 -54 129 -105 153 -51 25 -150 28 -203 6 -19 -8
-37 -15 -39 -15 -2 0 -4 17 -4 39 0 21 -6 44 -14 51 -8 6 -16 26 -18 43 l-3
32 -80 0 -80 0 -5 -110 c-4 -98 -6 -107 -18 -87 -34 59 -191 83 -281 42 -24
-11 -45 -20 -47 -20 -2 0 -4 18 -4 39 0 22 -6 46 -14 54 -8 8 -16 29 -18 48
l-3 34 -80 0 -80 0 -3 -63 c-2 -36 -7 -60 -12 -57 -6 4 -10 16 -10 29 0 22
-17 46 -32 46 -4 0 -8 -29 -8 -65 l0 -65 30 0 c28 0 30 -2 30 -40 0 -38 -2
-40 -30 -40 l-31 0 3 -117 3 -118 30 -5 c26 -4 30 -10 33 -43 l3 -37 -54 0
c-39 0 -62 6 -78 19 -23 18 -24 26 -27 160 -3 131 -5 141 -23 141 -16 0 -19 7
-19 40 0 33 3 40 20 40 17 0 20 7 20 40 0 36 4 42 40 65 40 25 45 45 12 45
-10 0 -34 -11 -55 -25 -29 -20 -37 -32 -37 -55 0 -23 -4 -30 -20 -30 -13 0
-20 -7 -20 -20 0 -25 -2 -25 -42 0 -29 17 -51 20 -175 20 l-143 0 0 -45 c0
-52 -7 -55 -41 -19 -82 88 -246 85 -323 -6 l-27 -33 -31 38 c-40 48 -82 65
-157 65 -73 0 -106 -12 -149 -53 l-32 -31 -16 23 c-39 55 -177 80 -257 46 -48
-20 -47 -21 -47 24 0 21 -6 44 -14 51 -8 6 -16 26 -18 43 l-3 32 -232 3 -233
2 0 -310z m430 225 l0 -45 -150 0 -150 0 0 -65 0 -65 141 0 140 0 -3 -42 -3
-43 -137 -3 -138 -3 0 -69 0 -70 155 0 155 0 0 -45 0 -45 -200 0 -200 0 0 270
0 270 195 0 195 0 0 -45z m1868 -7 l3 -48 -45 0 -46 0 0 51 0 50 43 -3 42 -3
3 -47z m552 -218 l0 -270 -45 0 -45 0 0 263 c0 145 3 267 7 270 3 4 24 7 45 7
l38 0 0 -270z m-2109 107 c37 -25 64 -70 55 -93 -8 -20 -86 -20 -86 0 0 38
-78 59 -116 32 -32 -24 -6 -48 77 -72 86 -24 114 -39 128 -71 20 -44 13 -90
-19 -126 -77 -88 -250 -66 -289 36 -16 43 -11 52 37 61 30 5 34 3 44 -24 5
-17 18 -35 28 -40 29 -15 87 -12 105 6 30 31 14 48 -75 76 -97 31 -140 68
-140 119 0 76 56 118 156 119 47 0 69 -5 95 -23z m366 -3 c33 -24 57 -85 39
-96 -6 -4 -25 -8 -42 -8 -23 0 -34 6 -42 24 -15 33 -72 45 -107 22 -38 -25
-21 -43 73 -71 101 -31 142 -65 142 -117 0 -94 -105 -156 -219 -128 -54 13
-92 47 -109 98 -12 36 -12 36 45 46 29 5 34 2 39 -20 13 -52 102 -75 139 -34
26 29 12 47 -52 65 -131 36 -163 61 -163 128 0 49 13 73 53 98 44 28 163 24
204 -7z m382 -3 c42 -30 70 -92 71 -153 l0 -48 -135 0 c-88 0 -135 -4 -135
-10 0 -21 30 -70 49 -80 45 -24 93 -11 120 34 18 29 24 31 60 28 49 -5 53 -22
18 -72 -34 -52 -82 -75 -152 -75 -71 1 -113 20 -152 72 -24 31 -29 47 -32 114
-4 99 20 156 82 194 56 35 155 32 206 -4z m207 15 c5 -12 9 -12 32 0 36 19
116 18 153 -2 49 -25 59 -64 59 -234 l0 -150 -45 0 -45 0 0 144 c0 160 -6 176
-61 176 -73 0 -89 -38 -89 -207 l0 -113 -45 0 -45 0 0 193 c0 107 3 197 7 200
12 13 74 7 79 -7z m602 -188 l2 -198 -45 0 -45 0 0 201 0 200 43 -3 42 -3 3
-197z m339 182 c17 -10 36 -27 41 -37 5 -10 12 -81 14 -158 3 -82 9 -149 17
-162 11 -22 10 -23 -38 -23 -35 0 -51 4 -55 15 -5 14 -9 14 -35 1 -50 -26
-107 -30 -155 -12 -54 21 -76 52 -76 108 0 80 38 109 168 129 80 12 83 13 80
38 -7 59 -114 67 -143 11 -13 -25 -22 -30 -51 -30 -43 0 -53 20 -31 65 24 50
77 74 162 75 52 0 78 -5 102 -20z m513 2 c36 -17 77 -82 65 -102 -3 -5 -23
-10 -44 -10 -30 0 -40 5 -49 25 -21 46 -113 44 -120 -2 -3 -19 7 -25 88 -49
115 -35 145 -64 137 -133 -15 -130 -237 -164 -307 -48 -28 46 -26 77 4 77 13
0 32 3 40 6 12 5 19 -3 27 -25 13 -37 35 -51 82 -51 38 0 73 30 64 54 -3 8
-45 26 -92 41 -104 31 -135 58 -135 117 0 47 24 86 65 104 43 19 133 17 175
-4z"/>
<path d="M4009 3116 c-14 -8 -30 -26 -37 -40 l-12 -26 89 0 c83 0 89 1 84 19
-12 47 -79 72 -124 47z"/>
<path d="M5198 2965 c-63 -13 -88 -29 -88 -54 0 -28 21 -41 66 -41 53 0 94 35
94 80 0 16 -3 30 -7 29 -5 -1 -34 -7 -65 -14z"/>
<path d="M3273 2551 c-47 -12 -95 -43 -119 -78 l-20 -30 -20 36 c-33 62 -65
71 -254 71 l-166 0 -13 -37 c-8 -21 -27 -73 -44 -117 l-30 -78 -42 113 -41
114 -62 3 c-46 2 -62 0 -62 -10 0 -7 35 -103 78 -213 l77 -200 51 -3 52 -3 55
138 56 138 3 -60 c1 -33 3 -87 4 -120 1 -33 2 -68 3 -77 1 -15 11 -18 61 -18
l60 0 0 80 c0 112 20 107 105 -23 38 -58 39 -58 83 -55 41 3 46 6 56 36 l12
33 19 -21 c65 -72 194 -76 270 -9 32 28 35 29 35 11 0 -45 9 -52 71 -52 l59 0
0 80 0 80 49 0 c46 0 49 -1 55 -31 3 -17 6 -54 6 -81 l0 -49 102 3 102 3 15
48 15 47 49 0 49 0 21 -50 21 -50 128 0 128 0 0 155 0 155 54 0 c30 0 58 4 61
10 3 5 3 32 -1 60 l-7 50 -173 0 -174 0 0 -60 0 -60 55 0 55 0 0 -142 -1 -143
-82 200 -82 200 -53 0 -54 0 -42 -110 c-65 -170 -65 -170 -66 -17 l0 132 -60
0 -60 0 0 -70 0 -70 -55 0 -55 0 0 70 0 70 -60 0 -60 0 0 -47 0 -48 -26 33
c-43 54 -121 80 -191 63z m117 -46 c32 -16 70 -61 70 -81 0 -26 -41 -14 -76
22 -31 34 -37 36 -76 31 -79 -11 -122 -95 -97 -190 13 -52 32 -73 74 -87 45
-15 98 7 120 49 14 28 42 40 58 25 3 -4 -3 -24 -14 -46 -22 -43 -81 -77 -131
-78 -43 0 -106 29 -128 59 -46 66 -50 179 -7 242 43 63 141 88 207 54z m-872
-47 c11 -29 35 -95 53 -146 21 -57 36 -87 41 -79 4 8 28 69 53 138 26 68 50
128 55 132 4 5 17 7 28 5 19 -3 15 -15 -48 -173 -60 -152 -70 -170 -93 -173
-23 -3 -28 6 -91 166 -36 92 -66 171 -66 175 0 4 11 7 24 7 20 0 28 -9 44 -52z
m545 32 c53 -42 39 -128 -25 -154 -20 -9 -26 -16 -19 -21 12 -7 101 -140 101
-150 0 -3 -13 -5 -29 -5 -24 0 -34 9 -66 62 -54 87 -67 98 -120 98 l-45 0 0
-80 c0 -79 0 -80 -25 -80 l-25 0 0 175 0 175 114 0 c98 0 117 -3 139 -20z
m507 -50 l0 -70 90 0 90 0 0 70 c0 68 1 70 25 70 l25 0 0 -175 0 -175 -25 0
c-25 0 -25 1 -25 85 l0 86 -87 -3 -88 -3 -3 -82 c-3 -81 -3 -83 -27 -83 l-25
0 0 175 0 175 25 0 c24 0 25 -2 25 -70z m525 -88 c86 -205 83 -194 49 -190
-24 2 -32 11 -49 56 l-20 52 -71 0 -71 0 -19 -52 c-16 -45 -23 -53 -47 -56
l-27 -3 24 63 c110 291 109 289 139 286 26 -3 33 -13 92 -156z m333 141 c-2
-14 -15 -19 -61 -21 l-57 -3 0 -154 0 -155 -25 0 -25 0 0 155 0 154 -57 3
c-46 2 -59 7 -61 21 -3 16 9 17 143 17 134 0 146 -1 143 -17z m-1071 -77 c10
-13 23 -32 28 -41 9 -15 16 -16 50 -6 21 6 40 9 41 8 0 -1 4 -17 8 -36 6 -32
5 -33 -21 -27 -16 3 -38 8 -49 12 -18 5 -24 -1 -35 -37 -37 -115 -158 -47
-135 76 14 70 76 99 113 51z m-226 -163 c10 -29 16 -53 14 -53 -2 0 -17 23
-35 51 -26 42 -29 53 -18 66 10 12 13 13 17 2 2 -8 12 -38 22 -66z"/>
<path d="M2860 2415 l0 -55 68 0 c81 0 112 17 112 60 0 39 -23 50 -109 50
l-71 0 0 -55z m140 0 c0 -11 -12 -15 -50 -15 -38 0 -50 4 -50 15 0 11 12 15
50 15 38 0 50 -4 50 -15z"/>
<path d="M3994 2434 c-4 -10 -15 -41 -26 -67 -10 -26 -18 -50 -18 -52 0 -3 23
-5 50 -5 58 0 59 2 29 80 -25 66 -27 68 -35 44z"/>
<path d="M1570 2335 l0 -216 63 3 62 3 3 78 3 77 67 0 68 0 18 -49 c40 -111
144 -150 244 -89 l32 20 0 -21 c0 -19 6 -21 65 -21 l65 0 0 106 c0 96 2 106
18 101 9 -2 23 -6 31 -8 8 -3 20 15 32 49 l18 52 -25 17 c-25 16 -49 19 -141
15 -49 -2 -53 -4 -53 -27 l0 -25 -39 25 c-21 14 -55 28 -75 32 -46 7 -119 -19
-146 -54 -11 -14 -20 -21 -20 -14 0 7 -27 11 -80 11 -64 0 -80 3 -80 15 0 12
17 15 89 15 50 0 93 4 96 10 3 5 3 32 -1 60 l-7 50 -153 0 -154 0 0 -215z
m278 158 c-3 -15 -17 -18 -96 -21 l-92 -3 0 -54 0 -55 80 0 c73 0 80 -2 80
-20 0 -18 -7 -20 -80 -20 l-79 0 -3 -77 c-3 -76 -4 -78 -28 -78 l-25 0 -3 173
-2 172 125 0 c115 0 126 -2 123 -17z m232 -91 c57 -43 63 -161 11 -213 -53
-53 -147 -44 -188 17 -24 37 -24 131 0 168 37 55 121 69 177 28z m219 19 c21
-14 5 -44 -20 -38 -13 3 -28 -2 -40 -14 -16 -16 -19 -34 -19 -114 0 -95 0 -95
-25 -95 l-25 0 0 131 0 132 28 -6 c15 -3 34 -2 42 4 19 11 41 11 59 0z"/>
<path d="M1959 2361 c-23 -23 -29 -38 -29 -71 0 -33 6 -48 29 -71 16 -16 37
-29 46 -29 9 0 30 13 46 29 23 23 29 38 29 71 0 33 -6 48 -29 71 -16 16 -37
29 -46 29 -9 0 -30 -13 -46 -29z m69 -33 c14 -14 16 -67 3 -86 -13 -21 -45
-10 -55 19 -19 55 17 102 52 67z"/>
</g>
</svg>
